<svg width="20" height="20" viewBox="0 0 20 20" fill="none" xmlns="http://www.w3.org/2000/svg">
<path d="M9.99998 19.8541C4.56598 19.8541 0.145813 15.434 0.145813 9.99998C0.145813 4.56598 4.56598 0.145813 9.99998 0.145813C15.434 0.145813 19.8541 4.56598 19.8541 9.99998C19.8541 15.434 15.434 19.8541 9.99998 19.8541ZM9.99998 1.52081C5.32406 1.52081 1.52081 5.32406 1.52081 9.99998C1.52081 14.6759 5.32406 18.4791 9.99998 18.4791C14.6759 18.4791 18.4791 14.6759 18.4791 9.99998C18.4791 5.32406 14.6759 1.52081 9.99998 1.52081ZM10.6875 14.125V9.93486C10.6875 9.55536 10.3795 9.24736 9.99998 9.24736C9.62048 9.24736 9.31248 9.55536 9.31248 9.93486V14.125C9.31248 14.5045 9.62048 14.8125 9.99998 14.8125C10.3795 14.8125 10.6875 14.5045 10.6875 14.125ZM10.935 6.79165C10.935 6.28565 10.5252 5.87498 10.0183 5.87498H10.0092C9.50316 5.87498 9.09696 6.28565 9.09696 6.79165C9.09696 7.29765 9.51233 7.70831 10.0183 7.70831C10.5243 7.70831 10.935 7.29765 10.935 6.79165Z" fill="currentColor"/>
</svg>
