<svg width="20" height="20" viewBox="0 0 20 20" fill="none" xmlns="http://www.w3.org/2000/svg">
<path d="M18.125 11.8908C18.1242 10.2325 16.0142 8.955 13.125 8.79333V4.99166C13.1242 2.83916 10.3 1.875 7.5 1.875C4.7 1.875 1.87583 2.83833 1.875 4.99166V14.175C1.875 16.3275 4.7 17.2917 7.5 17.2917C7.78917 17.2917 8.08584 17.265 8.38084 17.2358C9.45917 17.8383 10.9817 18.125 12.5 18.125C15.2992 18.125 18.125 17.1608 18.125 15.0083V11.8908C18.125 11.8917 18.125 11.8917 18.125 11.8908ZM16.875 11.8925C16.875 12.7742 15.0042 13.76 12.5 13.76C9.99583 13.76 8.125 12.7742 8.125 11.8925C8.125 11.5692 8.38084 11.2325 8.82334 10.935C8.83834 10.9267 8.85002 10.915 8.86419 10.9058C9.63419 10.4058 10.9442 10.025 12.5 10.025C15.0042 10.025 16.875 11.0108 16.875 11.8925ZM11.875 7.94169C11.875 8.31752 11.545 8.63164 11.2308 8.85081C10.0717 8.98831 9.07084 9.31252 8.32001 9.76919C8.05334 9.79169 7.78498 9.80835 7.50081 9.80835C5.14415 9.80835 3.12581 8.78169 3.12581 7.94169V7.06502C4.20998 7.77502 5.85748 8.11 7.50081 8.11C9.14415 8.11 10.7916 7.77502 11.8758 7.06502V7.94169H11.875ZM3.125 9.87417C4.1275 10.5525 5.60334 10.9767 7.07418 11.0467C6.94751 11.3142 6.875 11.5958 6.875 11.8917C6.875 11.8917 6.875 11.8917 6.875 11.8925V12.8992C4.79833 12.74 3.125 11.8242 3.125 11.0592V9.87417ZM7.5 3.125C9.65083 3.125 11.875 3.82336 11.875 4.99252C11.875 6.20586 9.62083 6.86 7.5 6.86C5.37917 6.86 3.125 6.20586 3.125 4.99252C3.125 3.82336 5.34917 3.125 7.5 3.125ZM3.125 14.175V12.9908C4.0825 13.6383 5.47 14.0542 6.875 14.1508V15.0083C6.875 15.3875 6.96667 15.7275 7.12667 16.0342C5.09917 15.9584 3.125 15.2758 3.125 14.175ZM12.5 16.875C11.1508 16.875 9.77334 16.6 8.93417 16.1067C8.43501 15.8133 8.12581 15.4433 8.12581 15.0083V13.8967C9.14081 14.585 10.6958 15.01 12.5008 15.01C14.3058 15.01 15.8608 14.585 16.8758 13.8967V15.0083C16.875 16.1767 14.6508 16.875 12.5 16.875Z" fill="currentColor"/>
</svg>
