<svg width="31" height="32" viewBox="0 0 31 32" fill="none" xmlns="http://www.w3.org/2000/svg">
<path d="M12.8329 29.375C12.8329 30.4388 11.9696 31.3021 10.9059 31.3021C9.84366 31.3021 8.97106 30.4388 8.97106 29.375C8.97106 28.3113 9.82668 27.448 10.8904 27.448H10.9059C11.9696 27.448 12.8329 28.3113 12.8329 29.375ZM23.2392 27.448H23.2238C22.16 27.448 21.3044 28.3113 21.3044 29.375C21.3044 30.4388 22.1754 31.3021 23.2392 31.3021C24.3029 31.3021 25.1663 30.4388 25.1663 29.375C25.1663 28.3113 24.3029 27.448 23.2392 27.448ZM30.4618 10.0919L28.8987 19.5978C28.4932 21.827 27.4849 24.3646 23.2083 24.3646H10.4649C8.36981 24.3646 6.56444 22.7998 6.26844 20.7248L3.94051 4.43704C3.80484 3.49354 2.98631 2.78284 2.03356 2.78284H1.625C0.98675 2.78284 0.46875 2.26484 0.46875 1.62659C0.46875 0.988337 0.98675 0.470337 1.625 0.470337H2.03507C4.13019 0.470337 5.93556 2.03512 6.23156 4.1102L6.37327 5.09534H26.2917C27.5528 5.09534 28.7399 5.65032 29.5478 6.61849C30.3541 7.58512 30.6884 8.85238 30.4618 10.0919ZM26.6201 19.2047L26.7849 18.198H17.0417C16.4034 18.198 15.8854 17.68 15.8854 17.0417C15.8854 16.4035 16.4034 15.8855 17.0417 15.8855H27.1658L28.1834 9.69719C28.2897 9.11444 28.1386 8.53788 27.7701 8.0985C27.4016 7.65913 26.8637 7.40628 26.2902 7.40628H6.70166L8.5578 20.3979C8.69346 21.3414 9.51218 22.0521 10.4649 22.0521H23.2083C25.6704 22.0521 26.2701 21.1333 26.6201 19.2047Z" fill="#48FF2C"/>
</svg>
