<svg width="31" height="27" viewBox="0 0 31 27" fill="none" xmlns="http://www.w3.org/2000/svg">
<path d="M30.5312 9.94804C30.5312 8.34933 29.6924 6.93705 28.2895 6.17085L18.312 0.727212C16.5529 -0.231705 14.4517 -0.233246 12.688 0.727212L2.71049 6.17085C1.30757 6.93705 0.46875 8.34933 0.46875 9.94804C0.46875 11.5468 1.30757 12.9588 2.71049 13.725L5.09375 15.0247V20.7442C5.09375 22.2181 5.84922 23.5718 7.11493 24.3688C9.89764 26.1186 12.6988 26.9943 15.5 26.9943C18.3012 26.9943 21.1039 26.1201 23.8851 24.3688C25.1492 23.5733 25.9062 22.2181 25.9062 20.7442V15.0247L28.2188 13.7636V19.6666C28.2188 20.3049 28.7367 20.8229 29.375 20.8229C30.0132 20.8229 30.5312 20.3049 30.5312 19.6666V10.4166C30.5312 10.3519 30.5036 10.2933 30.4944 10.2316C30.5005 10.1345 30.5312 10.0467 30.5312 9.94804ZM23.5938 20.7442C23.5938 21.4071 23.2347 22.047 22.655 22.4109C17.842 25.4371 13.163 25.4387 8.34683 22.4109C7.76717 22.047 7.40776 21.4071 7.40776 20.7442V16.2858L12.6895 19.1672C13.5698 19.6482 14.5349 19.8887 15.5015 19.8887C16.4681 19.8887 17.4332 19.6482 18.3135 19.1672L23.5953 16.2858V20.7442H23.5938ZM27.1811 11.6962L17.2035 17.1398C16.1382 17.7225 14.8603 17.7225 13.795 17.1398L3.81743 11.6962C3.16685 11.3416 2.77974 10.6895 2.77974 9.94955C2.77974 9.20955 3.16685 8.55733 3.81743 8.20275L13.795 2.75912C14.3284 2.46928 14.9142 2.32289 15.4985 2.32289C16.0828 2.32289 16.6701 2.46928 17.202 2.75912L27.1796 8.20275C27.8301 8.55733 28.2172 9.20955 28.2172 9.94955C28.2172 10.6895 27.8316 11.3416 27.1811 11.6962Z" fill="#48FF2C"/>
</svg>
