<svg width="22" height="22" viewBox="0 0 22 22" fill="none" xmlns="http://www.w3.org/2000/svg">
<path d="M14.4375 15.5833V16.5C14.4375 18.7165 13.2165 19.9375 11 19.9375H5.5C3.2835 19.9375 2.0625 18.7165 2.0625 16.5V5.5C2.0625 3.2835 3.2835 2.0625 5.5 2.0625H11C13.2165 2.0625 14.4375 3.2835 14.4375 5.5V6.41667C14.4375 6.79617 14.1295 7.10417 13.75 7.10417C13.3705 7.10417 13.0625 6.79617 13.0625 6.41667V5.5C13.0625 4.05442 12.4456 3.4375 11 3.4375H5.5C4.05442 3.4375 3.4375 4.05442 3.4375 5.5V16.5C3.4375 17.9456 4.05442 18.5625 5.5 18.5625H11C12.4456 18.5625 13.0625 17.9456 13.0625 16.5V15.5833C13.0625 15.2038 13.3705 14.8958 13.75 14.8958C14.1295 14.8958 14.4375 15.2038 14.4375 15.5833ZM19.8843 11.2631C19.954 11.0953 19.954 10.9056 19.8843 10.7378C19.8495 10.6535 19.7991 10.5774 19.7359 10.5142L16.9859 7.76417C16.7173 7.49558 16.2818 7.49558 16.0132 7.76417C15.7447 8.03275 15.7447 8.46817 16.0132 8.73676L17.5899 10.3134H7.33333C6.95383 10.3134 6.64583 10.6214 6.64583 11.0009C6.64583 11.3804 6.95383 11.6884 7.33333 11.6884H17.5899L16.0132 13.2651C15.7447 13.5337 15.7447 13.9691 16.0132 14.2377C16.1471 14.3715 16.3231 14.4393 16.4991 14.4393C16.6751 14.4393 16.8511 14.3724 16.9849 14.2377L19.7349 11.4877C19.7991 11.4226 19.8495 11.3465 19.8843 11.2631Z" fill="currentColor"/>
</svg>
