<svg width="187" height="52" viewBox="0 0 187 52" fill="none" xmlns="http://www.w3.org/2000/svg">
<path d="M25.3296 23.4105H29.9378V26.7765C29.9378 27.4176 30.4587 27.8985 31.0999 27.9386C31.741 27.8985 32.262 27.4176 32.262 26.7765V22.4488C32.262 20.0846 25.3296 22.3286 25.3296 15.5164V11.6295C25.3296 8.82448 27.2931 6.50034 29.9378 5.93934V1.21091H32.262V5.93934C34.9067 6.50034 36.9102 8.82448 36.9102 11.6295V14.9955H32.262V11.6295C32.262 10.9883 31.741 10.4674 31.0999 10.4674C30.4587 10.4674 29.9378 10.9883 29.9378 11.6295V15.9572C29.9378 18.3214 36.9102 16.0774 36.9102 22.8896V26.7765C36.9102 29.5414 34.9067 31.9056 32.262 32.4266V37.1951H29.9378V32.4266C27.2931 31.9056 25.3296 29.5414 25.3296 26.7765V23.4105ZM40.1974 26.8166H40.1573V17.8806C40.1573 16.7186 41.0789 15.9973 42.2009 15.9973C42.3612 15.9973 42.4814 15.8771 42.4814 15.7168C42.4814 15.5565 42.3612 15.3962 42.2009 15.3962C41.0389 15.3962 39.9169 15.3962 38.7949 15.3962V10.7479H40.1573L42.4814 4.97762H44.8056V10.7479H47.0496V15.3962H44.8056V26.8166C44.8056 27.2573 44.8456 27.618 45.3265 27.618H47.0496V32.2663H45.3265C42.2811 32.2663 40.3176 29.862 40.1974 26.8166ZM55.7732 26.4559V21.4871C54.8516 21.4871 53.4491 22.4488 53.4491 23.7711V26.4559C53.4491 27.0971 53.97 27.618 54.6112 27.618C55.2523 27.618 55.7732 27.0971 55.7732 26.4559ZM60.3815 16.5182V32.2262H55.7732V29.7818C55.7732 29.6216 55.613 29.5013 55.4527 29.5013C55.2924 29.5013 55.1722 29.6216 55.1722 29.7818C55.1722 31.3847 54.4509 32.2663 52.848 32.2663C50.6441 32.2663 48.8008 30.423 48.8008 28.179V23.7711C48.8008 19.6438 52.6877 19.2431 55.7732 19.203V16.5583C55.7732 15.9171 55.2523 15.3962 54.6112 15.3962C53.97 15.3962 53.4892 15.9171 53.4491 16.5583L53.409 16.8788V18.0008H48.8008V16.8788V16.5182C49.0012 13.3526 51.4055 10.7479 54.6112 10.7479C57.7768 10.7479 60.3815 13.3526 60.3815 16.5182ZM62.9548 5.53862H67.563V18.8824C67.563 19.0427 67.6832 19.1629 67.8435 19.1629C67.9637 19.1629 68.0439 19.1228 68.0839 19.0427C68.124 19.0026 68.1641 18.9626 68.1641 18.8824V18.8023L69.8872 10.7479H74.5354L72.5719 19.7239C72.3716 20.7257 72.5319 21.2066 71.3297 21.2066C71.1694 21.2066 71.0492 21.3268 71.0492 21.4871C71.0492 21.6473 71.1694 21.7676 71.3297 21.7676C72.5319 21.7676 72.3716 22.2484 72.5719 23.2903L74.5354 32.2663H69.8872L68.1641 24.1718V24.0917C68.1641 24.0516 68.124 23.9715 68.0839 23.9314C68.0439 23.8513 67.9637 23.8112 67.8435 23.8112C67.6832 23.8112 67.563 23.9314 67.563 24.0917V32.2663H62.9548V5.53862ZM80.528 19.4033H82.8521V16.5182C82.8521 15.8771 82.3312 15.3561 81.6901 15.3561C81.0489 15.3561 80.528 15.8771 80.528 16.5182V19.4033ZM75.9198 26.4559V16.5182C75.9198 13.3526 78.4844 10.7479 81.6901 10.7479C84.8958 10.7479 87.5004 13.3526 87.5004 16.5182V23.6108H80.528V26.4559C80.528 27.0971 81.0489 27.618 81.6901 27.618C82.3312 27.618 82.8521 27.0971 82.8521 26.4559V24.7328H87.5004V26.4559C87.5004 29.6216 84.8958 32.2262 81.6901 32.2262C78.5244 32.2262 75.9198 29.6216 75.9198 26.4559ZM94.5636 16.7987H95.7257C96.3668 16.7987 96.8878 16.2778 96.8878 15.6366V11.3089C96.8878 10.6678 96.3668 10.1468 95.7257 10.1468H94.5636V16.7987ZM89.9554 32.2262V5.53862H95.7257C98.9314 5.53862 101.536 8.14327 101.536 11.3089V15.1958C101.536 18.3615 98.9314 20.9661 95.7257 20.9661H94.5636V32.2262H89.9554ZM103.317 10.7479H107.926V13.1522C107.926 13.3125 108.086 13.4327 108.246 13.4327C108.406 13.4327 108.527 13.3125 108.527 13.1522V12.6713C108.527 11.3089 109.649 10.7479 110.851 10.7479C113.055 10.7479 114.898 12.5511 114.898 14.7951V20.325H110.25V16.5182C110.25 15.8771 109.729 15.3561 109.088 15.3561C108.447 15.3561 107.926 15.8771 107.926 16.5182V32.2262H103.317V10.7479ZM121.086 26.4559C121.086 27.0971 121.607 27.618 122.248 27.618C122.889 27.618 123.41 27.0971 123.41 26.4559C123.41 23.13 123.41 19.8441 123.41 16.5182C123.41 15.8771 122.889 15.3561 122.248 15.3561C121.607 15.3561 121.086 15.8771 121.086 16.5182V26.4559ZM116.478 26.4559V16.5182C116.478 13.3526 119.083 10.7479 122.248 10.7479C125.454 10.7479 128.059 13.3526 128.059 16.5182C128.059 19.8441 128.059 23.13 128.059 26.4559C128.059 29.6216 125.454 32.2262 122.248 32.2262C119.083 32.2262 116.478 29.6216 116.478 26.4559ZM131.115 17.8406C131.115 16.6785 132.036 15.9572 133.118 15.9572C133.279 15.9572 133.439 15.837 133.439 15.6767C133.439 15.5164 133.279 15.3962 133.118 15.3962H129.873V10.7479H131.115V10.4273C131.235 7.38191 133.198 4.93755 136.284 4.93755H138.087V9.58584H136.284C135.763 9.58584 135.723 9.94648 135.723 10.4273V10.7479H138.087V15.3962H135.723V32.2663H131.115V17.8406ZM139.884 9.58584V4.93755H144.492V9.58584H139.884ZM139.884 10.7479H144.492V32.2262H139.884V10.7479ZM147.863 26.8166H147.823V17.8806C147.823 16.7186 148.744 15.9973 149.866 15.9973C150.027 15.9973 150.147 15.8771 150.147 15.7168C150.147 15.5565 150.027 15.3962 149.866 15.3962C148.704 15.3962 147.582 15.3962 146.46 15.3962V10.7479H147.823L150.147 4.97762H152.471V10.7479H154.715V15.3962H152.471V26.8166C152.471 27.2573 152.511 27.618 152.992 27.618H154.715V32.2663H152.992C149.946 32.2663 147.983 29.862 147.863 26.8166Z" fill="url(#paint0_linear_917_1053)"/>
<path d="M24.4881 33.1302H27.9683V35.0937H24.4881V33.1302ZM34.2259 33.1302H155.116V35.0937H34.2259V33.1302Z" fill="url(#paint1_linear_917_1053)"/>
<path d="M183.542 35H172.754C172.754 35 174.598 34.4467 171.878 29.3292L167.636 21.4914L161.965 29.3292C158.461 34.2162 160.075 35 160.075 35H155.464C155.464 35 158.369 33.9857 161.689 29.3292L167.498 21.2148L160.628 8.44386C158 3.51069 155.464 2.72691 155.464 2.72691H166.207C166.207 2.72691 164.409 3.37238 167.129 8.44386L171.232 16.0511L176.673 8.44386C180.269 3.46459 178.609 2.72691 178.609 2.72691H183.219C183.219 2.72691 180.638 3.37238 176.995 8.44386L178.194 6.7841L171.371 16.2816L178.378 29.3292C181.099 34.4467 183.542 35 183.542 35Z" fill="url(#paint2_linear_917_1053)"/>
<path d="M0 12.0019C0 11.5209 0.389947 11.131 0.87097 11.131H5.22582C5.70684 11.131 6.09679 11.5209 6.09679 12.0019V16.3568C6.09679 16.8378 5.70684 17.2277 5.22582 17.2277H0.870971C0.389947 17.2277 0 16.8378 0 16.3568V12.0019Z" fill="url(#paint3_linear_917_1053)"/>
<rect x="7.84048" y="11.131" width="6.09679" height="6.09679" rx="0.87097" fill="url(#paint4_linear_917_1053)"/>
<rect x="13.0674" y="16.3565" width="6.96776" height="6.96776" rx="0.87097" fill="url(#paint5_linear_917_1053)"/>
<rect x="6.96408" y="22.4535" width="6.96776" height="6.96776" rx="0.87097" fill="url(#paint6_linear_917_1053)"/>
<defs>
<linearGradient id="paint0_linear_917_1053" x1="90.1607" y1="2.2262" x2="90.1607" y2="40.0714" gradientUnits="userSpaceOnUse">
<stop stop-color="#28DF99"/>
<stop offset="0.5" stop-color="#3EDD25"/>
<stop offset="1" stop-color="#17540E"/>
</linearGradient>
<linearGradient id="paint1_linear_917_1053" x1="90.1607" y1="2.2262" x2="90.1607" y2="40.0714" gradientUnits="userSpaceOnUse">
<stop stop-color="#28DF99"/>
<stop offset="0.5" stop-color="#3EDD25"/>
<stop offset="1" stop-color="#17540E"/>
</linearGradient>
<linearGradient id="paint2_linear_917_1053" x1="171.417" y1="0" x2="171.417" y2="51.2024" gradientUnits="userSpaceOnUse">
<stop stop-color="#28DF99"/>
<stop offset="0.5" stop-color="#3EDD25"/>
<stop offset="1" stop-color="#17540E"/>
</linearGradient>
<linearGradient id="paint3_linear_917_1053" x1="3.0484" y1="11.131" x2="3.0484" y2="17.2277" gradientUnits="userSpaceOnUse">
<stop stop-color="#28DF99"/>
<stop offset="0.5" stop-color="#3EDD25"/>
<stop offset="1" stop-color="#17540E"/>
</linearGradient>
<linearGradient id="paint4_linear_917_1053" x1="10.8889" y1="11.131" x2="10.8889" y2="17.2277" gradientUnits="userSpaceOnUse">
<stop stop-color="#28DF99"/>
<stop offset="0.5" stop-color="#3EDD25"/>
<stop offset="1" stop-color="#17540E"/>
</linearGradient>
<linearGradient id="paint5_linear_917_1053" x1="16.5513" y1="16.3565" x2="16.5513" y2="23.3242" gradientUnits="userSpaceOnUse">
<stop stop-color="#28DF99"/>
<stop offset="0.5" stop-color="#3EDD25"/>
<stop offset="1" stop-color="#17540E"/>
</linearGradient>
<linearGradient id="paint6_linear_917_1053" x1="10.448" y1="22.4535" x2="10.448" y2="29.4212" gradientUnits="userSpaceOnUse">
<stop stop-color="#28DF99"/>
<stop offset="0.5" stop-color="#3EDD25"/>
<stop offset="1" stop-color="#17540E"/>
</linearGradient>
</defs>
</svg>
