<svg width="31" height="31" viewBox="0 0 31 31" fill="none" xmlns="http://www.w3.org/2000/svg">
<path d="M29.375 28.2186H28.9896V26.2915C28.9896 24.6265 27.9551 23.5936 26.2917 23.5936H25.9062V15.1145H26.2917C27.9551 15.1145 28.9896 14.0815 28.9896 12.4165V8.47129C28.9896 7.443 28.4176 6.51809 27.4972 6.05867L17.0509 0.835597C16.0781 0.351513 14.9188 0.351513 13.9491 0.835597L3.50278 6.05867C2.5824 6.51809 2.01042 7.443 2.01042 8.47129V12.4165C2.01042 14.0815 3.04487 15.1145 4.70833 15.1145H5.09375V23.5936H4.70833C3.04487 23.5936 2.01042 24.6265 2.01042 26.2915V28.2186H1.625C0.98675 28.2186 0.46875 28.7366 0.46875 29.3749C0.46875 30.0131 0.98675 30.5311 1.625 30.5311H29.375C30.0132 30.5311 30.5312 30.0131 30.5312 29.3749C30.5312 28.7366 30.0132 28.2186 29.375 28.2186ZM23.5938 23.5936H19.7396V15.1145H23.5938V23.5936ZM13.5729 23.5936V15.1145H17.4271V23.5936H13.5729ZM4.37542 12.7602C4.37388 12.7602 4.37388 12.7602 4.37542 12.7602C4.36771 12.7478 4.32292 12.657 4.32292 12.4165V8.47129C4.32292 8.32483 4.40453 8.19244 4.53557 8.12614L14.9819 2.90307C15.3103 2.73965 15.6897 2.73965 16.0181 2.90307L26.4644 8.12614C26.5955 8.19089 26.6771 8.32329 26.6771 8.47129V12.4165C26.6771 12.657 26.6324 12.7465 26.6355 12.7511C26.6232 12.7573 26.5322 12.802 26.2917 12.802H4.70833C4.47554 12.802 4.38313 12.7602 4.37542 12.7602ZM7.40625 15.1145H11.2604V23.5936H7.40625V15.1145ZM4.32292 26.2915C4.32292 26.051 4.36759 25.9616 4.36451 25.9569C4.37684 25.9508 4.46783 25.9061 4.70833 25.9061H26.2917C26.5722 25.9061 26.6278 25.9479 26.6263 25.9479C26.6324 25.9618 26.6771 26.051 26.6771 26.2915V28.2186H4.32292V26.2915ZM13.5729 7.79154C13.5729 6.72779 14.4362 5.86446 15.5 5.86446C16.5637 5.86446 17.4271 6.72779 17.4271 7.79154C17.4271 8.85529 16.5637 9.71862 15.5 9.71862C14.4362 9.71862 13.5729 8.85529 13.5729 7.79154Z" fill="#48FF2C"/>
</svg>
