<svg width="22" height="22" viewBox="0 0 22 22" fill="none" xmlns="http://www.w3.org/2000/svg">
<path d="M19.9375 9.16667C19.9375 9.54617 19.6295 9.85417 19.25 9.85417H17.6458V11.4583C17.6458 11.8378 17.3378 12.1458 16.9583 12.1458C16.5788 12.1458 16.2708 11.8378 16.2708 11.4583V9.85417H14.6667C14.2872 9.85417 13.9792 9.54617 13.9792 9.16667C13.9792 8.78717 14.2872 8.47917 14.6667 8.47917H16.2708V6.875C16.2708 6.4955 16.5788 6.1875 16.9583 6.1875C17.3378 6.1875 17.6458 6.4955 17.6458 6.875V8.47917H19.25C19.6295 8.47917 19.9375 8.78717 19.9375 9.16667ZM5.27911 5.95833C5.27911 3.81058 7.02628 2.0625 9.17495 2.0625C11.3236 2.0625 13.0708 3.81058 13.0708 5.95833C13.0708 8.10608 11.3236 9.85417 9.17495 9.85417C7.02628 9.85417 5.27911 8.10608 5.27911 5.95833ZM6.65411 5.95833C6.65411 7.34892 7.78436 8.47917 9.17495 8.47917C10.5655 8.47917 11.6958 7.34892 11.6958 5.95833C11.6958 4.56775 10.5655 3.4375 9.17495 3.4375C7.78436 3.4375 6.65411 4.56775 6.65411 5.95833ZM11 11.2292H7.33333C3.443 11.2292 2.0625 14.0773 2.0625 16.5175V19.25C2.0625 19.6295 2.3705 19.9375 2.75 19.9375C3.1295 19.9375 3.4375 19.6295 3.4375 19.25V16.5175C3.4375 15.5999 3.71892 12.6042 7.33333 12.6042H11C14.6144 12.6042 14.8958 15.599 14.8958 16.5175V19.25C14.8958 19.6295 15.2038 19.9375 15.5833 19.9375C15.9628 19.9375 16.2708 19.6295 16.2708 19.25V16.5175C16.2708 14.0773 14.8903 11.2292 11 11.2292Z" fill="currentColor"/>
</svg>
