<svg width="22" height="22" viewBox="0 0 22 22" fill="none" xmlns="http://www.w3.org/2000/svg">
<path d="M11 1.14581C5.56604 1.14581 1.14587 5.56598 1.14587 11C1.14587 16.434 5.56604 20.8541 11 20.8541C16.434 20.8541 20.8542 16.434 20.8542 11C20.8542 5.56598 16.434 1.14581 11 1.14581ZM11 19.4791C6.32412 19.4791 2.52087 15.6759 2.52087 11C2.52087 6.32406 6.32412 2.52081 11 2.52081C15.676 2.52081 19.4792 6.32406 19.4792 11C19.4792 15.6759 15.676 19.4791 11 19.4791ZM16.0692 8.68079C16.3378 8.94937 16.3378 9.38482 16.0692 9.6534L13.509 12.2136C12.8847 12.8388 11.8663 12.8397 11.2411 12.2145L9.78454 10.7616C9.6947 10.6718 9.54988 10.6718 9.46005 10.7616L6.90162 13.3201C6.76779 13.4539 6.59179 13.5217 6.41579 13.5217C6.23979 13.5217 6.06379 13.4548 5.92996 13.3201C5.66138 13.0515 5.66138 12.616 5.92996 12.3475L8.48837 9.78902C9.11354 9.16386 10.131 9.16388 10.7562 9.78813L12.2128 11.241C12.3026 11.3299 12.4475 11.3299 12.5373 11.241L15.0975 8.68079C15.3661 8.4122 15.8006 8.4122 16.0692 8.68079Z" fill="currentColor"/>
</svg>
