<svg width="18" height="18" viewBox="0 0 18 18" fill="none" xmlns="http://www.w3.org/2000/svg">
<path d="M1.50072 8.83337C1.47822 8.83337 1.45494 8.83252 1.4316 8.83002C1.08827 8.79252 0.840768 8.48333 0.878268 8.14083C1.18077 5.37666 2.84908 2.99586 5.34075 1.77252C5.53492 1.67752 5.76408 1.68918 5.94658 1.80334C6.12991 1.91751 6.24158 2.11831 6.24158 2.33415V4.87585C6.24158 5.22085 5.96158 5.50085 5.61658 5.50085C5.27158 5.50085 4.99158 5.22085 4.99158 4.87585V3.42505C3.38908 4.54005 2.33822 6.2908 2.12155 8.27663C2.08655 8.5958 1.81489 8.83337 1.50072 8.83337ZM16.5674 9.1708C16.2274 9.13413 15.9166 9.38085 15.8791 9.72418C15.6616 11.71 14.6116 13.4609 13.0082 14.5759V13.125C13.0082 12.78 12.7282 12.5 12.3832 12.5C12.0382 12.5 11.7582 12.78 11.7582 13.125V15.6667C11.7582 15.8825 11.8699 16.0833 12.0532 16.1975C12.1541 16.26 12.2682 16.2917 12.3832 16.2917C12.4774 16.2917 12.5716 16.2708 12.6591 16.2275C15.1507 15.005 16.8191 12.6242 17.1207 9.85917C17.1591 9.51667 16.9107 9.2083 16.5674 9.1708ZM8.37491 4.83333C8.37491 2.65083 10.1507 0.875 12.3332 0.875C14.5157 0.875 16.2916 2.65083 16.2916 4.83333C16.2916 7.01583 14.5157 8.79167 12.3332 8.79167C10.1507 8.79167 8.37491 7.01583 8.37491 4.83333ZM9.62491 4.83333C9.62491 6.32667 10.8399 7.54167 12.3332 7.54167C13.8266 7.54167 15.0416 6.32667 15.0416 4.83333C15.0416 3.34 13.8266 2.125 12.3332 2.125C10.8399 2.125 9.62491 3.34 9.62491 4.83333ZM9.62491 13.1667C9.62491 15.3492 7.84908 17.125 5.66658 17.125C3.48408 17.125 1.70824 15.3492 1.70824 13.1667C1.70824 10.9842 3.48408 9.20833 5.66658 9.20833C7.84908 9.20833 9.62491 10.9842 9.62491 13.1667ZM8.37491 13.1667C8.37491 11.6733 7.15991 10.4583 5.66658 10.4583C4.17324 10.4583 2.95824 11.6733 2.95824 13.1667C2.95824 14.66 4.17324 15.875 5.66658 15.875C7.15991 15.875 8.37491 14.66 8.37491 13.1667Z" fill="currentColor"/>
</svg>
