<svg width="31" height="31" viewBox="0 0 31 31" fill="none" xmlns="http://www.w3.org/2000/svg">
<path d="M0.807998 8.60886C0.701623 8.50249 0.617039 8.37431 0.558456 8.23248C0.441289 7.95035 0.441289 7.63123 0.558456 7.34911C0.617039 7.20727 0.701623 7.07947 0.807998 6.9731L6.97467 0.806433C7.42637 0.354724 8.15872 0.354724 8.61043 0.806433C9.06214 1.25814 9.06214 1.99049 8.61043 2.4422L4.41714 6.63548H23.2085C23.8467 6.63548 24.3647 7.15348 24.3647 7.79173C24.3647 8.42998 23.8467 8.94798 23.2085 8.94798H4.41714L8.61043 13.1413C9.06214 13.593 9.06214 14.3253 8.61043 14.777C8.38534 15.0021 8.0893 15.1162 7.7933 15.1162C7.4973 15.1162 7.20125 15.0037 6.97617 14.777L0.807998 8.60886ZM30.4418 22.7658C30.3832 22.6239 30.2986 22.4961 30.1923 22.3898L24.0256 16.2231C23.5739 15.7714 22.8415 15.7714 22.3898 16.2231C21.9381 16.6748 21.9381 17.4072 22.3898 17.8589L26.5831 22.0522H7.79179C7.15354 22.0522 6.63554 22.5702 6.63554 23.2084C6.63554 23.8466 7.15354 24.3647 7.79179 24.3647H26.5831L22.3898 28.5579C21.9381 29.0096 21.9381 29.742 22.3898 30.1937C22.6149 30.4188 22.911 30.5328 23.207 30.5328C23.503 30.5328 23.799 30.4203 24.0241 30.1937L30.1907 24.027C30.2971 23.9207 30.3817 23.7929 30.4403 23.651C30.559 23.3674 30.559 23.0494 30.4418 22.7658Z" fill="#48FF2C"/>
</svg>
