<svg width="14" height="18" viewBox="0 0 14 18" fill="none" xmlns="http://www.w3.org/2000/svg">
<path d="M7.00737 7.95833C5.05403 7.95833 3.4657 6.36917 3.4657 4.41667C3.4657 2.46417 5.05403 0.875 7.00737 0.875C8.9607 0.875 10.549 2.46417 10.549 4.41667C10.549 6.36917 8.9607 7.95833 7.00737 7.95833ZM7.00737 2.125C5.7432 2.125 4.7157 3.1525 4.7157 4.41667C4.7157 5.68083 5.7432 6.70833 7.00737 6.70833C8.27153 6.70833 9.29903 5.68083 9.29903 4.41667C9.29903 3.1525 8.2707 2.125 7.00737 2.125ZM10.3306 17.125H3.66905C1.65238 17.125 0.541504 16.0209 0.541504 14.0159C0.541504 11.7984 1.7965 9.20833 5.33317 9.20833H8.6665C12.2032 9.20833 13.4582 11.7975 13.4582 14.0159C13.4582 16.0209 12.3473 17.125 10.3306 17.125ZM5.33317 10.4583C2.04734 10.4583 1.7915 13.1809 1.7915 14.0159C1.7915 15.3192 2.35321 15.875 3.66905 15.875H10.3306C11.6465 15.875 12.2082 15.3192 12.2082 14.0159C12.2082 13.1817 11.9523 10.4583 8.6665 10.4583H5.33317Z" fill="currentColor"/>
</svg>
